
<svg xmlns="http://www.w3.org/2000/svg" xmlns:xlink="http://www.w3.org/1999/xlink" width="2499pt" height="589pt" viewBox="0 0 2499 589" version="1.1">
<g id="surface1">
<path style="stroke:none;fill-rule:nonzero;fill:rgb(7.45098%,11.764706%,16.078431%);fill-opacity:1" d="M 1449.792969 520.632812 C 1449.792969 525.382812 1451.289062 528.132812 1454.039062 528.132812 C 1456.289062 527.882812 1458.289062 526.882812 1460.035156 525.632812 L 2238.90625 19.996094 C 2252.066406 10.792969 2267.832031 6.0625 2283.882812 6.5 L 2455.050781 6.5 C 2481.285156 6.5 2499.027344 23.996094 2499.027344 50.238281 L 2499.027344 377.164062 C 2499.027344 416.65625 2490.28125 439.652344 2455.300781 460.644531 L 2247.652344 585.617188 C 2245.582031 587.054688 2243.167969 587.917969 2240.65625 588.117188 C 2238.15625 588.117188 2235.65625 586.117188 2235.65625 578.871094 L 2235.65625 197.457031 C 2235.65625 192.957031 2234.40625 189.957031 2231.410156 189.957031 C 2229.214844 190.210938 2227.136719 191.074219 2225.410156 192.457031 L 1656.191406 562.375 C 1643.195312 571.121094 1627.953125 575.871094 1612.460938 575.621094 L 1235.144531 575.621094 C 1208.660156 575.621094 1191.167969 558.125 1191.167969 531.628906 L 1191.167969 60.488281 C 1191.167969 56.988281 1189.667969 53.738281 1186.667969 53.738281 C 1184.480469 54.015625 1182.410156 54.878906 1180.671875 56.238281 L 805.105469 281.6875 C 801.359375 284.1875 800.359375 285.9375 800.359375 287.683594 C 800.359375 289.183594 801.109375 290.683594 803.605469 293.433594 L 1071.976562 561.625 C 1075.472656 565.121094 1077.972656 567.871094 1077.972656 570.871094 C 1077.972656 573.371094 1073.976562 575.371094 1069.226562 575.371094 L 826.847656 575.371094 C 807.855469 575.371094 793.113281 572.621094 782.867188 562.375 L 620.195312 399.910156 C 618.949219 398.417969 617.140625 397.511719 615.199219 397.410156 C 613.433594 397.492188 611.71875 398.007812 610.203125 398.910156 L 338.335938 562.375 C 321.84375 572.371094 310.597656 575.121094 294.355469 575.121094 L 44.226562 575.121094 C 17.492188 575.371094 0 557.625 0 531.378906 L 0 210.703125 C 0 170.960938 8.746094 148.214844 43.976562 127.222656 L 252.875 1.75 C 254.515625 0.675781 256.417969 0.0703125 258.375 0 C 261.621094 0 263.371094 3.25 263.371094 10.496094 L 263.371094 439.902344 C 263.371094 444.398438 264.371094 446.398438 267.621094 446.398438 C 269.867188 446.148438 271.867188 445.148438 273.867188 443.898438 L 979.519531 19.246094 C 993.015625 9.996094 1009.507812 5.5 1026 6.25 L 1405.8125 6.25 C 1432.050781 6.25 1449.792969 23.746094 1449.792969 49.988281 L 1449.542969 520.632812 Z M 1449.792969 520.632812 "></path>
</g>
</svg>
